<?xml version="1.0" encoding="UTF-8"?>
<svg version="1.1" xmlns="http://www.w3.org/2000/svg" width="110" height="74">
<path d="M0 0 C3.43575693 1.20783441 6.09408951 2.89715245 8.4375 5.75 C9.45945967 9.83783868 9.97564557 14.1634907 7.9375 18 C4.90246787 19.56646819 2.34866332 19.2989878 -1 19 C-4 17 -4 17 -4.75 15.125 C-5.02298092 12.80466218 -4.71043724 11.21024918 -4 9 C-7 7.66666667 -7 7.66666667 -10 9 C-11.23623308 15.255817 -11.23623308 15.255817 -9 21 C-7.89398437 21.43119141 -7.89398437 21.43119141 -6.765625 21.87109375 C-3.46995903 23.21635853 -1.13868099 25.0116468 1.625 27.25 C2.56601562 27.99765625 3.50703125 28.7453125 4.4765625 29.515625 C7.91267725 32.89854912 9.71156377 35.98660201 10.3984375 40.78125 C10.351496 46.22646368 10.25174528 50.40270496 7 55 C3.28361229 58.52078836 -0.11757313 61 -5.36328125 61 C-11.78269789 60.54350815 -15.53070818 59.26907897 -20.3125 54.875 C-22.65136952 50.89025933 -22.70950023 47.51884078 -22 43 C-20.27310955 39.71068486 -19.5579199 39.1859733 -16 38 C-15.34 37.34 -14.68 36.68 -14 36 C-14 36.99 -14 37.98 -14 39 C-13.21625 39.0825 -12.4325 39.165 -11.625 39.25 C-9 40 -9 40 -7.625 41.5625 C-6.68411462 45.23195298 -7.3790554 48.2743324 -8 52 C-5.62625139 52.33425735 -5.62625139 52.33425735 -3 52 C-0.97103788 50.46186579 -0.97103788 50.46186579 0 48 C-0.10538932 43.04670201 -1.74113186 40.60425245 -5 37 C-7.64114741 35.11471644 -7.64114741 35.11471644 -10.5 33.5 C-16.15922066 30.20397038 -20.16205879 26.43279423 -22 20 C-22.6268438 14.35840577 -21.47006061 10.4433703 -18 6 C-12.3008125 0.35896748 -7.88006913 -0.85985807 0 0 Z " fill="#2A62C0" transform="translate(31,7)"/>
<path d="M0 0 C-0.14049518 1.47968324 -0.28754826 2.95874516 -0.4375 4.4375 C-0.51871094 5.26121094 -0.59992188 6.08492187 -0.68359375 6.93359375 C-1 9 -1 9 -2 10 C-4.08135137 10.0999519 -6.16625528 10.12967207 -8.25 10.125 C-9.95929688 10.12886719 -9.95929688 10.12886719 -11.703125 10.1328125 C-14.60044376 10.01609587 -17.18608964 9.66645245 -20 9 C-20 11.97 -20 14.94 -20 18 C-17.958125 18.12375 -17.958125 18.12375 -15.875 18.25 C-9.82918244 18.94176282 -6.14197334 21.53344507 -2.1875 26.0625 C2.07032581 31.7801518 1.71685265 38.11658533 1 45 C-0.17227043 48.17826767 -1.74846923 50.48707779 -4 53 C-4.45761719 53.51433594 -4.91523437 54.02867188 -5.38671875 54.55859375 C-8.63106086 57.69627256 -11.61512031 58.78681124 -15.984375 59.0703125 C-21.73398585 58.86974468 -25.907996 56.97165094 -30 53 C-30.96847302 50.09458095 -31.19582812 48.03362546 -31.25 45 C-31.27578125 44.13375 -31.3015625 43.2675 -31.328125 42.375 C-31 40 -31 40 -29.6640625 38.2421875 C-27.13661346 36.35550019 -25.12523387 36.12500935 -22 36 C-19.1875 37 -19.1875 37 -17 39 C-16.01484123 42.61224884 -15.58036117 44.90893904 -16.9375 48.4375 C-17.288125 48.953125 -17.63875 49.46875 -18 50 C-15.62625139 50.33425735 -15.62625139 50.33425735 -13 50 C-10.48117781 47.75105162 -9.99372679 45.97442461 -9.1875 42.6875 C-8.97308668 38.47070478 -9.25348888 35.85687871 -11 32 C-16.63061352 27.47102826 -22.97081607 26.87720522 -30 26 C-29.86116581 22.56217969 -29.71272946 19.12483971 -29.5625 15.6875 C-29.52318359 14.71103516 -29.48386719 13.73457031 -29.44335938 12.72851562 C-29.40146484 11.79072266 -29.35957031 10.85292969 -29.31640625 9.88671875 C-29.27974854 9.02264404 -29.24309082 8.15856934 -29.20532227 7.26831055 C-29 5 -29 5 -28 2 C-20.35507076 -1.82246462 -8.37164191 -0.12331387 0 0 Z " fill="#2C64C2" transform="translate(103,9)"/>
<path d="M0 0 C0.87462891 0.00451172 1.74925781 0.00902344 2.65039062 0.01367188 C4.78779047 0.02535166 6.92515463 0.04328311 9.0625 0.0625 C10.02270369 5.12773557 9.96902826 8.93428448 8.75 13.9375 C8.48574219 15.06929687 8.22148438 16.20109375 7.94921875 17.3671875 C7.65660156 18.25664062 7.36398438 19.14609375 7.0625 20.0625 C6.4025 20.3925 5.7425 20.7225 5.0625 21.0625 C4.4595882 23.19511585 4.4595882 23.19511585 4.1015625 25.80078125 C3.39301531 30.08603584 2.63028341 34.34710863 1.7734375 38.60546875 C1.55429687 39.69794922 1.33515625 40.79042969 1.109375 41.91601562 C0.77679688 43.56633789 0.77679688 43.56633789 0.4375 45.25 C0.20804688 46.39275391 -0.02140625 47.53550781 -0.2578125 48.71289062 C-0.8168181 51.49627269 -1.37703187 54.27941207 -1.9375 57.0625 C-5.5675 57.0625 -9.1975 57.0625 -12.9375 57.0625 C-12.40943395 48.62944528 -10.45475685 41.02315667 -8.0625 32.9375 C-7.53462891 31.10251953 -7.53462891 31.10251953 -6.99609375 29.23046875 C-5.20445667 23.06963493 -3.3026471 17.02743073 -0.9375 11.0625 C-6.2175 11.0625 -11.4975 11.0625 -16.9375 11.0625 C-16.9375 7.7625 -16.9375 4.4625 -16.9375 1.0625 C-11.24910882 0.0822752 -5.76455667 -0.05698801 0 0 Z " fill="#2863C5" transform="translate(59.9375,8.9375)"/>
<path d="M0 0 C7.59 0 15.18 0 23 0 C23 2.64 23 5.28 23 8 C19.04 9.98 19.04 9.98 15 12 C15 11.01 15 10.02 15 9 C13.62714844 9.01740234 13.62714844 9.01740234 12.2265625 9.03515625 C10.44378906 9.04869141 10.44378906 9.04869141 8.625 9.0625 C7.44164062 9.07410156 6.25828125 9.08570313 5.0390625 9.09765625 C2 9 2 9 0 8 C0 5.36 0 2.72 0 0 Z " fill="#2967CA" transform="translate(44,11)"/>
<path d="M0 0 C0.87462891 0.00451172 1.74925781 0.00902344 2.65039062 0.01367188 C4.78779047 0.02535166 6.92515463 0.04328311 9.0625 0.0625 C10.02270369 5.12773557 9.96902826 8.93428448 8.75 13.9375 C8.48574219 15.06929687 8.22148438 16.20109375 7.94921875 17.3671875 C7.65660156 18.25664062 7.36398438 19.14609375 7.0625 20.0625 C6.4025 20.3925 5.7425 20.7225 5.0625 21.0625 C4.65520772 23.38406597 4.31811323 25.7193787 4.0625 28.0625 C3.7325 28.0625 3.4025 28.0625 3.0625 28.0625 C3.09505208 26.01171875 3.12760417 23.9609375 3.16015625 21.91015625 C3.26811184 20.04517859 3.26811184 20.04517859 2.0625 19.0625 C2.02157063 16.72952567 2.02008277 14.39544775 2.0625 12.0625 C2.701875 11.8975 3.34125 11.7325 4 11.5625 C6.23238482 10.28706564 6.23238482 10.28706564 6.48266602 8.16601562 C6.55155029 7.44091797 6.62043457 6.71582031 6.69140625 5.96875 C6.81386719 4.6796875 6.93632813 3.390625 7.0625 2.0625 C6.12398193 2.11579468 6.12398193 2.11579468 5.16650391 2.17016602 C2.34045205 2.32746067 -0.48598174 2.47633248 -3.3125 2.625 C-4.29734375 2.68107422 -5.2821875 2.73714844 -6.296875 2.79492188 C-7.70839844 2.86743164 -7.70839844 2.86743164 -9.1484375 2.94140625 C-10.01774902 2.9885376 -10.88706055 3.03566895 -11.78271484 3.08422852 C-13.9375 3.0625 -13.9375 3.0625 -15.9375 2.0625 C-15.9375 4.7025 -15.9375 7.3425 -15.9375 10.0625 C-15.2775 10.3925 -14.6175 10.7225 -13.9375 11.0625 C-14.9275 11.0625 -15.9175 11.0625 -16.9375 11.0625 C-16.9375 7.7625 -16.9375 4.4625 -16.9375 1.0625 C-11.24910882 0.0822752 -5.76455667 -0.05698801 0 0 Z " fill="#3164BB" transform="translate(59.9375,8.9375)"/>
<path d="M0 0 C1.98 0.66 3.96 1.32 6 2 C6 2.99 6 3.98 6 5 C6.99 5.33 7.98 5.66 9 6 C9.33 9.96 9.66 13.92 10 18 C9.01 18.33 8.02 18.66 7 19 C5.79117904 21.00016466 5.79117904 21.00016466 5 23 C3.68 22.67 2.36 22.34 1 22 C1 21.01 1 20.02 1 19 C1.99 19 2.98 19 4 19 C3.34 18.01 2.68 17.02 2 16 C2 14.68 2 13.36 2 12 C1.34 11.67 0.68 11.34 0 11 C0.185625 10.113125 0.37125 9.22625 0.5625 8.3125 C0.98042484 5.14821189 0.80777742 3.05160358 0 0 Z " fill="#2E6AC9" transform="translate(94,36)"/>
<path d="M0 0 C2.625 -0.1875 2.625 -0.1875 5 0 C4.67 1.32 4.34 2.64 4 4 C6.64 4.33 9.28 4.66 12 5 C12.33 6.32 12.66 7.64 13 9 C13.66 9 14.32 9 15 9 C15 9.66 15 10.32 15 11 C14.34 11 13.68 11 13 11 C13 12.32 13 13.64 13 15 C12.01 15 11.02 15 10 15 C10 14.34 10 13.68 10 13 C9.01 13 8.02 13 7 13 C7 11.68 7 10.36 7 9 C4.36 8.67 1.72 8.34 -1 8 C-1.625 5.6875 -1.625 5.6875 -2 3 C-1.34 2.01 -0.68 1.02 0 0 Z " fill="#2766CC" transform="translate(14,26)"/>
<path d="M0 0 C3.96 0 7.92 0 12 0 C12 0.66 12 1.32 12 2 C12.66 1.34 13.32 0.68 14 0 C17.625 -0.125 17.625 -0.125 21 0 C21 1.98 21 3.96 21 6 C14.73 6 8.46 6 2 6 C2 5.01 2 4.02 2 3 C1.34 3 0.68 3 0 3 C0 2.01 0 1.02 0 0 Z " fill="#2665CD" transform="translate(80,11)"/>
<path d="M0 0 C5.25803515 2.70413236 9.09608181 6.28824543 11 12 C11.068991 14.06145107 11.08467727 16.12501401 11.0625 18.1875 C11.05347656 19.27417969 11.04445313 20.36085938 11.03515625 21.48046875 C11.02355469 22.31191406 11.01195313 23.14335938 11 24 C10.67 24 10.34 24 10 24 C10.00902344 23.34773438 10.01804687 22.69546875 10.02734375 22.0234375 C9.90012443 16.61646587 9.90012443 16.61646587 7.375 12 C5.63968121 10.54457134 3.90483929 9.2234738 2 8 C2.2784375 9.0828125 2.2784375 9.0828125 2.5625 10.1875 C3.01995307 13.12826973 2.73516357 15.14103058 2 18 C1.773125 17.443125 1.54625 16.88625 1.3125 16.3125 C-0.76216939 12.65713011 -3.04711334 9.70651744 -7.10546875 8.23828125 C-9.05345617 7.75214634 -11.02627977 7.36798174 -13 7 C-13 6.67 -13 6.34 -13 6 C-9.625 5.375 -9.625 5.375 -6 5 C-5.34 5.66 -4.68 6.32 -4 7 C-1.89179203 6.6814823 -1.89179203 6.6814823 0 6 C0 4.02 0 2.04 0 0 Z " fill="#2A60B8" transform="translate(93,29)"/>
<path d="M0 0 C0 0.99 0 1.98 0 3 C2.31 3 4.62 3 7 3 C7 2.34 7 1.68 7 1 C7.99 1.33 8.98 1.66 10 2 C7.02598613 4.97401387 5.42501782 5.95122746 1.1875 6.4375 C-4.69288627 6.10401874 -9.44960965 4.66666963 -13.5 0.3125 C-13.995 -0.450625 -14.49 -1.21375 -15 -2 C-9.638832 -3.787056 -5.15037563 -1.79664266 0 0 Z " fill="#285EB9" transform="translate(25,62)"/>
<path d="M0 0 C0.4125 0.495 0.825 0.99 1.25 1.5 C3.12202338 3.43386092 3.12202338 3.43386092 7 3 C7.66 3 8.32 3 9 3 C9.35789474 8.36842105 9.35789474 8.36842105 7.9375 10.875 C4.96164925 12.60291334 2.36405631 12.24465864 -1 12 C-1.66 11.67 -2.32 11.34 -3 11 C-2.625 8.5625 -2.625 8.5625 -2 6 C-1.34 5.67 -0.68 5.34 0 5 C-0.2784375 4.0409375 -0.2784375 4.0409375 -0.5625 3.0625 C-0.706875 2.381875 -0.85125 1.70125 -1 1 C-0.67 0.67 -0.34 0.34 0 0 Z " fill="#2C65C1" transform="translate(31,14)"/>
<path d="M0 0 C0.66 0 1.32 0 2 0 C2.66 0.66 3.32 1.32 4 2 C6.9482975 2.93104132 8.41468152 3.23729128 11.3125 2.0625 C11.869375 1.711875 12.42625 1.36125 13 1 C13.33 1.99 13.66 2.98 14 4 C14.66 4 15.32 4 16 4 C16 4.99 16 5.98 16 7 C14.68 6.67 13.36 6.34 12 6 C12 6.66 12 7.32 12 8 C9.36 8.33 6.72 8.66 4 9 C4.33 7.68 4.66 6.36 5 5 C2.03 4.505 2.03 4.505 -1 4 C-1 1 -1 1 0 0 Z " fill="#2A65CB" transform="translate(20,57)"/>
<path d="M0 0 C0.66 0 1.32 0 2 0 C2.33 1.32 2.66 2.64 3 4 C2.01 4.33 1.02 4.66 0 5 C0 5.66 0 6.32 0 7 C1.32 7 2.64 7 4 7 C4 7.99 4 8.98 4 10 C0.81978037 12.36244887 -2.06206761 13.57427758 -6 14 C-6.66 13.67 -7.32 13.34 -8 13 C-7.8125 10.625 -7.8125 10.625 -7 8 C-6.195625 7.690625 -5.39125 7.38125 -4.5625 7.0625 C-1.65720566 6.20990208 -1.65720566 6.20990208 -0.6875 2.875 C-0.460625 1.92625 -0.23375 0.9775 0 0 Z " fill="#2865CB" transform="translate(18,47)"/>
<path d="M0 0 C0.66 0 1.32 0 2 0 C1.45274588 5.36309033 0.57021414 10.64276273 -0.4375 15.9375 C-0.55971924 16.61240479 -0.68193848 17.28730957 -0.80786133 17.98266602 C-1.13805172 19.66966215 -1.56190545 21.33775609 -2 23 C-2.66 23.33 -3.32 23.66 -4 24 C-4 21.69 -4 19.38 -4 17 C-4.66 17 -5.32 17 -6 17 C-6.33 17.66 -6.66 18.32 -7 19 C-7.33 17.68 -7.66 16.36 -8 15 C-7.34 14.67 -6.68 14.34 -6 14 C-4.86649466 11.98330173 -4.86649466 11.98330173 -4 10 C-3.67 10.66 -3.34 11.32 -3 12 C-2.01 8.04 -1.02 4.08 0 0 Z " fill="#2E62BE" transform="translate(61,37)"/>
<path d="M0 0 C-0.14049518 1.47968324 -0.28754826 2.95874516 -0.4375 4.4375 C-0.51871094 5.26121094 -0.59992188 6.08492187 -0.68359375 6.93359375 C-1 9 -1 9 -2 10 C-4.69082872 9.82364548 -7.32851446 9.38164079 -10 9 C-10 8.67 -10 8.34 -10 8 C-7.36 8 -4.72 8 -2 8 C-2 6.02 -2 4.04 -2 2 C-5.12290635 2.48578543 -7.99580359 2.9986012 -11 4 C-11 3.34 -11 2.68 -11 2 C-15.95 2 -20.9 2 -26 2 C-26 1.67 -26 1.34 -26 1 C-17.31008699 0.20354316 -8.72542301 -0.12852505 0 0 Z " fill="#2957A2" transform="translate(103,9)"/>
<path d="M0 0 C0.87462891 0.00451172 1.74925781 0.00902344 2.65039062 0.01367188 C4.78779047 0.02535166 6.92515463 0.04328311 9.0625 0.0625 C8.7325 1.7125 8.4025 3.3625 8.0625 5.0625 C7.7325 4.0725 7.4025 3.0825 7.0625 2.0625 C6.12398193 2.11579468 6.12398193 2.11579468 5.16650391 2.17016602 C2.34045205 2.32746067 -0.48598174 2.47633248 -3.3125 2.625 C-4.29734375 2.68107422 -5.2821875 2.73714844 -6.296875 2.79492188 C-7.70839844 2.86743164 -7.70839844 2.86743164 -9.1484375 2.94140625 C-10.01774902 2.9885376 -10.88706055 3.03566895 -11.78271484 3.08422852 C-13.9375 3.0625 -13.9375 3.0625 -15.9375 2.0625 C-15.9375 4.7025 -15.9375 7.3425 -15.9375 10.0625 C-15.2775 10.3925 -14.6175 10.7225 -13.9375 11.0625 C-14.9275 11.0625 -15.9175 11.0625 -16.9375 11.0625 C-16.9375 7.7625 -16.9375 4.4625 -16.9375 1.0625 C-11.24910882 0.0822752 -5.76455667 -0.05698801 0 0 Z " fill="#224F9A" transform="translate(59.9375,8.9375)"/>
<path d="M0 0 C0.125 6.625 0.125 6.625 -1 10 C-1.66 10 -2.32 10 -3 10 C-3.33 10.66 -3.66 11.32 -4 12 C-4.99 11.67 -5.98 11.34 -7 11 C-7.625 8.625 -7.625 8.625 -8 6 C-6 4 -6 4 -3 3 C-3 2.34 -3 1.68 -3 1 C-1 0 -1 0 0 0 Z " fill="#2A67CA" transform="translate(85,49)"/>
<path d="M0 0 C1.32 0.33 2.64 0.66 4 1 C4.33 3.64 4.66 6.28 5 9 C5.99 9 6.98 9 8 9 C8 10.32 8 11.64 8 13 C7.05125 13.309375 6.1025 13.61875 5.125 13.9375 C2.13919592 14.87394742 2.13919592 14.87394742 0 16 C0.309375 15.443125 0.61875 14.88625 0.9375 14.3125 C2.41137042 11.10466438 3.52743273 8.62286992 2.390625 5.125 C1.64975496 3.39164368 0.82971825 1.69262523 0 0 Z " fill="#2A5DB1" transform="translate(28,45)"/>
<path d="M0 0 C0.66 0.33 1.32 0.66 2 1 C1.814375 1.5775 1.62875 2.155 1.4375 2.75 C0.95605367 5.22600969 1.36051901 6.60194629 2 9 C1.67 9.66 1.34 10.32 1 11 C0.34 11 -0.32 11 -1 11 C-0.67 11.99 -0.34 12.98 0 14 C-0.99 15.485 -0.99 15.485 -2 17 C-2.66 17 -3.32 17 -4 17 C-2.91103333 11.24237834 -1.70663707 5.60752181 0 0 Z " fill="#2760B8" transform="translate(55,31)"/>
<path d="M0 0 C0.33 0.99 0.66 1.98 1 3 C1.78375 3.0825 2.5675 3.165 3.375 3.25 C6 4 6 4 7.375 5.6875 C8.19215562 8.71097581 7.68693763 10.97747444 7 14 C4.5 12.625 4.5 12.625 2 11 C2 10.34 2 9.68 2 9 C2.66 8.67 3.32 8.34 4 8 C4 6.68 4 5.36 4 4 C2.02 4 0.04 4 -2 4 C-1.34 2.68 -0.68 1.36 0 0 Z " fill="#3D6BBB" transform="translate(16,43)"/>
<path d="M0 0 C0.4125 0.495 0.825 0.99 1.25 1.5 C3.12202338 3.43386092 3.12202338 3.43386092 7 3 C7.66 3 8.32 3 9 3 C9 4.98 9 6.96 9 9 C8.01 9.495 8.01 9.495 7 10 C6.67 8.68 6.34 7.36 6 6 C4.35 6 2.7 6 1 6 C0.67 6.66 0.34 7.32 0 8 C-0.38063221 5.6739143 -0.71269945 3.33944736 -1 1 C-0.67 0.67 -0.34 0.34 0 0 Z " fill="#2766D1" transform="translate(31,14)"/>
<path d="M0 0 C1.29550781 -0.02126953 1.29550781 -0.02126953 2.6171875 -0.04296875 C5.2491288 0.19890748 6.86480544 0.85766459 9.125 2.1875 C8.465 2.8475 7.805 3.5075 7.125 4.1875 C7.125 3.5275 7.125 2.8675 7.125 2.1875 C1.515 2.8475 -4.095 3.5075 -9.875 4.1875 C-6.21944167 0.53194167 -4.97138272 0.03687969 0 0 Z " fill="#2A57A8" transform="translate(25.875,6.8125)"/>
<path d="M0 0 C0.33 0 0.66 0 1 0 C1.33 1.65 1.66 3.3 2 5 C2.99 4.34 3.98 3.68 5 3 C5.33 3.99 5.66 4.98 6 6 C5.01 7.485 5.01 7.485 4 9 C4.33 9.66 4.66 10.32 5 11 C4.01 12.485 4.01 12.485 3 14 C0.56574762 9.03006806 -0.34615998 5.65394631 0 0 Z " fill="#2E60B2" transform="translate(9,20)"/>
<path d="M0 0 C1.98 0.66 3.96 1.32 6 2 C5.67 2.66 5.34 3.32 5 4 C5.93446535 6.03144641 6.93224776 8.03533587 8 10 C6.68 10 5.36 10 4 10 C3.566875 9.1028125 3.566875 9.1028125 3.125 8.1875 C1.95257974 5.80672208 1.95257974 5.80672208 0 3 C0 2.01 0 1.02 0 0 Z " fill="#2964CD" transform="translate(94,36)"/>
<path d="M0 0 C0.66 0 1.32 0 2 0 C1.32418477 6.08233706 0.26361972 12.01314152 -1 18 C-1.33 18 -1.66 18 -2 18 C-2.20852314 11.59370576 -2.1583195 6.07027358 0 0 Z " fill="#3560AC" transform="translate(61,37)"/>
<path d="M0 0 C-1.32 0.33 -2.64 0.66 -4 1 C-3.67 1.99 -3.34 2.98 -3 4 C-3.99 4 -4.98 4 -6 4 C-6 3.34 -6 2.68 -6 2 C-10.95 2 -15.9 2 -21 2 C-21 1.67 -21 1.34 -21 1 C-13.98441385 0.4011085 -7.04321257 -0.13810221 0 0 Z " fill="#1D4E9D" transform="translate(98,9)"/>
<path d="M0 0 C2.97 0.33 5.94 0.66 9 1 C8.01 1.495 8.01 1.495 7 2 C7 2.66 7 3.32 7 4 C4.69 4.33 2.38 4.66 0 5 C0 3.35 0 1.7 0 0 Z " fill="#2966CC" transform="translate(84,61)"/>
<path d="M0 0 C0.66 0 1.32 0 2 0 C2.66 0.66 3.32 1.32 4 2 C5.64991582 2.70710678 7.31562256 3.37943989 9 4 C8.67 4.66 8.34 5.32 8 6 C3.545 5.01 3.545 5.01 -1 4 C-1 1 -1 1 0 0 Z " fill="#4B78D0" transform="translate(20,57)"/>
<path d="M0 0 C0.33 0 0.66 0 1 0 C1 2.97 1 5.94 1 9 C2.65 9.33 4.3 9.66 6 10 C6 10.33 6 10.66 6 11 C3.69 11 1.38 11 -1 11 C-1.125 3.375 -1.125 3.375 0 0 Z " fill="#2E5BA5" transform="translate(74,24)"/>
<path d="M0 0 C0.99 0 1.98 0 3 0 C3 0.66 3 1.32 3 2 C2.34 2 1.68 2 1 2 C1 4.31 1 6.62 1 9 C1.66 9 2.32 9 3 9 C3.33 10.98 3.66 12.96 4 15 C1 13 1 13 0 10 C-0.06802967 8.27204648 -0.08495645 6.54164635 -0.0625 4.8125 C-0.05347656 3.91144531 -0.04445313 3.01039062 -0.03515625 2.08203125 C-0.02355469 1.39496094 -0.01195313 0.70789062 0 0 Z " fill="#4572B8" transform="translate(72,49)"/>
<path d="M0 0 C1.20628008 2.33214148 2.1654738 4.49642139 3 7 C2.01 7 1.02 7 0 7 C-0.33 8.32 -0.66 9.64 -1 11 C-2.32 11.33 -3.64 11.66 -5 12 C-4.319375 10.9790625 -4.319375 10.9790625 -3.625 9.9375 C-1.83163514 6.69564814 -0.91246131 3.5796559 0 0 Z " fill="#3766B6" transform="translate(95,48)"/>
<path d="M0 0 C0 0.66 0 1.32 0 2 C-6.28571429 4.42857143 -6.28571429 4.42857143 -10 3 C-7.02931146 0.02931146 -4.09966187 0 0 0 Z " fill="#2B59A9" transform="translate(95,64)"/>
<path d="M0 0 C0.33 0 0.66 0 1 0 C2.25 6.625 2.25 6.625 0 10 C-0.66 10 -1.32 10 -2 10 C-1.34 6.7 -0.68 3.4 0 0 Z " fill="#2D5FAB" transform="translate(53,38)"/>
<path d="M0 0 C0.33 0 0.66 0 1 0 C1.33 2.31 1.66 4.62 2 7 C0.02 7.99 0.02 7.99 -2 9 C-1.125 2.25 -1.125 2.25 0 0 Z " fill="#3768BF" transform="translate(58,23)"/>
<path d="M0 0 C0.99 0.33 1.98 0.66 3 1 C1.35 2.32 -0.3 3.64 -2 5 C-4.475 4.01 -4.475 4.01 -7 3 C-7 2.67 -7 2.34 -7 2 C-4.69 2 -2.38 2 0 2 C0 1.34 0 0.68 0 0 Z " fill="#4068B6" transform="translate(32,63)"/>
<path d="M0 0 C0.66 0.33 1.32 0.66 2 1 C1.67 2.32 1.34 3.64 1 5 C-0.32 4.67 -1.64 4.34 -3 4 C-3 3.01 -3 2.02 -3 1 C-2.01 0.67 -1.02 0.34 0 0 Z " fill="#2467D0" transform="translate(98,54)"/>
<path d="M0 0 C0 1.98 0 3.96 0 6 C-0.99 6.495 -0.99 6.495 -2 7 C-2.66 5.02 -3.32 3.04 -4 1 C-2 0 -2 0 0 0 Z " fill="#3972D2" transform="translate(40,17)"/>
<path d="M0 0 C1.051875 1.2684375 1.051875 1.2684375 2.125 2.5625 C-1.505 1.5725 -5.135 0.5825 -8.875 -0.4375 C-8.875 -0.7675 -8.875 -1.0975 -8.875 -1.4375 C-4.60386331 -2.72877388 -3.51475976 -2.97990501 0 0 Z " fill="#305DA8" transform="translate(88.875,36.4375)"/>
<path d="M0 0 C0.33 0 0.66 0 1 0 C1 2.64 1 5.28 1 8 C0.01 8.495 0.01 8.495 -1 9 C-2.0326802 6.21176345 -2.04509293 5.1322726 -1.0625 2.25 C-0.711875 1.5075 -0.36125 0.765 0 0 Z " fill="#2E5DA8" transform="translate(28,15)"/>
<path d="M0 0 C0.66 0.99 1.32 1.98 2 3 C1.125 6.1875 1.125 6.1875 0 9 C-0.33 9 -0.66 9 -1 9 C-1.09765625 2.84765625 -1.09765625 2.84765625 -1 1 C-0.67 0.67 -0.34 0.34 0 0 Z " fill="#446BB4" transform="translate(68,13)"/>
<path d="" fill="#FFFFFE" transform="translate(0,0)"/>
<path d="" fill="#FFFFFF" transform="translate(0,0)"/>
<path d="" fill="#FFFFFF" transform="translate(0,0)"/>
<path d="" fill="#FFFFFF" transform="translate(0,0)"/>
<path d="" fill="#FFFFFF" transform="translate(0,0)"/>
<path d="" fill="#FFFFFF" transform="translate(0,0)"/>
<path d="" fill="#FFFE00" transform="translate(0,0)"/>
<path d="" fill="#FFFFFF" transform="translate(0,0)"/>
<path d="" fill="#FFFFFF" transform="translate(0,0)"/>
<path d="" fill="#FFFFFF" transform="translate(0,0)"/>
<path d="" fill="#FFFFFF" transform="translate(0,0)"/>
<path d="" fill="#FFFFFF" transform="translate(0,0)"/>
<path d="" fill="#FEFFFF" transform="translate(0,0)"/>
<path d="" fill="#FFFFFF" transform="translate(0,0)"/>
<path d="" fill="#FFFFFF" transform="translate(0,0)"/>
<path d="" fill="#FFFFFF" transform="translate(0,0)"/>
<path d="" fill="#FFFFFF" transform="translate(0,0)"/>
<path d="" fill="#FFFFFF" transform="translate(0,0)"/>
<path d="" fill="#FFFFFF" transform="translate(0,0)"/>
<path d="" fill="#FFFFFF" transform="translate(0,0)"/>
<path d="" fill="#FFFFFF" transform="translate(0,0)"/>
<path d="" fill="#FFFEFF" transform="translate(0,0)"/>
<path d="" fill="#FFFFFF" transform="translate(0,0)"/>
<path d="" fill="#FFFFFF" transform="translate(0,0)"/>
<path d="" fill="#FFFFFF" transform="translate(0,0)"/>
<path d="" fill="#FFFFFF" transform="translate(0,0)"/>
<path d="" fill="#FFFFFF" transform="translate(0,0)"/>
<path d="" fill="#FFFFFF" transform="translate(0,0)"/>
<path d="" fill="#FFFFFF" transform="translate(0,0)"/>
<path d="" fill="#FFFFFF" transform="translate(0,0)"/>
<path d="" fill="#FFFFFF" transform="translate(0,0)"/>
<path d="" fill="#FFFFFF" transform="translate(0,0)"/>
<path d="" fill="#FFFFFF" transform="translate(0,0)"/>
<path d="" fill="#FFFFFE" transform="translate(0,0)"/>
<path d="" fill="#FFFFFF" transform="translate(0,0)"/>
<path d="" fill="#FFFFFF" transform="translate(0,0)"/>
<path d="" fill="#FFFFFF" transform="translate(0,0)"/>
<path d="" fill="#FFFFFF" transform="translate(0,0)"/>
<path d="" fill="#FFFFFF" transform="translate(0,0)"/>
<path d="" fill="#FFFFFF" transform="translate(0,0)"/>
<path d="" fill="#FFFFFF" transform="translate(0,0)"/>
<path d="" fill="#FFFFFF" transform="translate(0,0)"/>
<path d="" fill="#FFFFFF" transform="translate(0,0)"/>
<path d="" fill="#FFFFFF" transform="translate(0,0)"/>
<path d="" fill="#FFFFFF" transform="translate(0,0)"/>
<path d="" fill="#FFFFFF" transform="translate(0,0)"/>
<path d="" fill="#FFFF00" transform="translate(0,0)"/>
<path d="" fill="#FFFFFF" transform="translate(0,0)"/>
<path d="" fill="#FFFFFF" transform="translate(0,0)"/>
</svg>
